<?xml version="1.0" encoding="UTF-8" standalone="no"?><svg xmlns="http://www.w3.org/2000/svg" xmlns:xlink="http://www.w3.org/1999/xlink" contentScriptType="application/ecmascript" contentStyleType="text/css" height="317px" preserveAspectRatio="none" style="width:141px;height:317px;" version="1.1" viewBox="0 0 141 317" width="141px" zoomAndPan="magnify"><defs><filter height="300%" id="fahsm0va40nmd" width="300%" x="-1" y="-1"><feGaussianBlur result="blurOut" stdDeviation="2.0"/><feColorMatrix in="blurOut" result="blurOut2" type="matrix" values="0 0 0 0 0 0 0 0 0 0 0 0 0 0 0 0 0 0 .4 0"/><feOffset dx="4.0" dy="4.0" in="blurOut2" result="blurOut3"/><feBlend in="SourceGraphic" in2="blurOut3" mode="normal"/></filter></defs><g><!--MD5=[770389ab9df153645bc6ef28055eb2b5]
entity A--><ellipse cx="77" cy="37" fill="#FEFECE" filter="url(#fahsm0va40nmd)" rx="8" ry="8" style="stroke: #A80036; stroke-width: 2.0;"/><text fill="#000000" font-family="sans-serif" font-size="14" lengthAdjust="spacingAndGlyphs" textLength="10" x="72" y="67.5352">A</text><!--MD5=[b2d39259b6aeabc16b394deeb0238426]
entity B--><ellipse cx="33" cy="155" fill="#FEFECE" filter="url(#fahsm0va40nmd)" rx="8" ry="8" style="stroke: #A80036; stroke-width: 2.0;"/><text fill="#000000" font-family="sans-serif" font-size="14" lengthAdjust="spacingAndGlyphs" textLength="8" x="29" y="185.5352">B</text><!--MD5=[16fab723be418f7eaf2ea4bd895a8e51]
entity C--><ellipse cx="122" cy="155" fill="#FEFECE" filter="url(#fahsm0va40nmd)" rx="8" ry="8" style="stroke: #A80036; stroke-width: 2.0;"/><text fill="#000000" font-family="sans-serif" font-size="14" lengthAdjust="spacingAndGlyphs" textLength="10" x="117" y="185.5352">C</text><!--MD5=[118f42602524ad482f02b27ef22fc383]
entity D--><ellipse cx="77" cy="273" fill="#FEFECE" filter="url(#fahsm0va40nmd)" rx="8" ry="8" style="stroke: #A80036; stroke-width: 2.0;"/><text fill="#000000" font-family="sans-serif" font-size="14" lengthAdjust="spacingAndGlyphs" textLength="10" x="72" y="303.5352">D</text><!--MD5=[5e2eec62a50b26b6b0db6c12e4ee289c]
link A to B--><path d="M73.84,46.34 C66.26,66.32 47.02,117.04 37.92,141.04 " fill="none" id="A-&gt;B" style="stroke: #A80036; stroke-width: 1.0;"/><polygon fill="#A80036" points="36.14,145.73,43.0642,138.726,37.9081,141.0531,35.581,135.897,36.14,145.73" style="stroke: #A80036; stroke-width: 1.0;"/><!--MD5=[e1650921a81fac0037ec207a42ac4e7e]
link A to C--><path d="M80.24,46.34 C87.99,66.32 107.66,117.04 116.97,141.04 " fill="none" id="A-&gt;C" style="stroke: #A80036; stroke-width: 1.0;"/><polygon fill="#A80036" points="118.79,145.73,119.2865,135.8937,116.9922,141.0644,111.8215,138.7701,118.79,145.73" style="stroke: #A80036; stroke-width: 1.0;"/><!--MD5=[635162b0568dccf9b81699e51957888e]
link B to D--><path d="M36.16,164.34 C43.74,184.32 62.98,235.04 72.08,259.04 " fill="none" id="B-&gt;D" style="stroke: #A80036; stroke-width: 1.0;"/><polygon fill="#A80036" points="73.86,263.73,74.419,253.897,72.0919,259.0531,66.9358,256.726,73.86,263.73" style="stroke: #A80036; stroke-width: 1.0;"/><!--MD5=[95ca888c4bb7ed1df160562281720a5c]
link C to D--><path d="M118.76,164.34 C111.01,184.32 91.34,235.04 82.03,259.04 " fill="none" id="C-&gt;D" style="stroke: #A80036; stroke-width: 1.0;"/><polygon fill="#A80036" points="80.21,263.73,87.1785,256.7701,82.0078,259.0644,79.7135,253.8937,80.21,263.73" style="stroke: #A80036; stroke-width: 1.0;"/><!--MD5=[26bee740e7128c83aeae625f6a6d62dd]
@startuml
circle A
circle B
circle C
circle D


A - -> B
A - -> C

B - -> D
C - -> D
@enduml

PlantUML version 1.2020.05(Thu Mar 19 22:17:32 CET 2020)
(GPL source distribution)
Java Runtime: Java(TM) SE Runtime Environment
JVM: Java HotSpot(TM) 64-Bit Server VM
Java Version: 1.8.0_251-b08
Operating System: Mac OS X
Default Encoding: US-ASCII
Language: de
Country: CH
--></g></svg>