<?xml version="1.0" encoding="UTF-8" standalone="no"?><svg xmlns="http://www.w3.org/2000/svg" xmlns:xlink="http://www.w3.org/1999/xlink" contentScriptType="application/ecmascript" contentStyleType="text/css" height="367px" preserveAspectRatio="none" style="width:221px;height:367px;background:#FFFFFF;" version="1.1" viewBox="0 0 221 367" width="221px" zoomAndPan="magnify"><defs><filter height="300%" id="f1udhwuqhzmn57" width="300%" x="-1" y="-1"><feGaussianBlur result="blurOut" stdDeviation="2.0"/><feColorMatrix in="blurOut" result="blurOut2" type="matrix" values="0 0 0 0 0 0 0 0 0 0 0 0 0 0 0 0 0 0 .4 0"/><feOffset dx="4.0" dy="4.0" in="blurOut2" result="blurOut3"/><feBlend in="SourceGraphic" in2="blurOut3" mode="normal"/></filter></defs><g><ellipse cx="96" cy="16" fill="#000000" filter="url(#f1udhwuqhzmn57)" rx="10" ry="10" style="stroke:none;stroke-width:1.0;"/><rect fill="#FEFECE" filter="url(#f1udhwuqhzmn57)" height="35.0938" rx="12.5" ry="12.5" style="stroke:#A80036;stroke-width:1.5;" width="84" x="54" y="67"/><text fill="#000000" font-family="sans-serif" font-size="12" lengthAdjust="spacing" textLength="64" x="64" y="89.457">Initialization</text><polygon fill="#FEFECE" filter="url(#f1udhwuqhzmn57)" points="96,143,108,155,96,167,84,155,96,143" style="stroke:#A80036;stroke-width:1.5;"/><rect fill="#FEFECE" filter="url(#f1udhwuqhzmn57)" height="35.0938" rx="12.5" ry="12.5" style="stroke:#A80036;stroke-width:1.5;" width="91" x="7.5" y="242"/><text fill="#000000" font-family="sans-serif" font-size="12" lengthAdjust="spacing" textLength="71" x="17.5" y="264.457">Some Activity</text><rect fill="#FEFECE" filter="url(#f1udhwuqhzmn57)" height="35.0938" rx="12.5" ry="12.5" style="stroke:#A80036;stroke-width:1.5;" width="100" x="7" y="318"/><text fill="#000000" font-family="sans-serif" font-size="12" lengthAdjust="spacing" textLength="80" x="17" y="340.457">Another activity</text><ellipse cx="138" cy="335.5" filter="url(#f1udhwuqhzmn57)" rx="10" ry="10" style="stroke:#000000;stroke-width:1.0;fill:none;"/><ellipse cx="138.5" cy="336" fill="#000000" rx="6" ry="6" style="stroke:none;stroke-width:1.0;"/><rect fill="#FEFECE" filter="url(#f1udhwuqhzmn57)" height="35.0938" rx="12.5" ry="12.5" style="stroke:#A80036;stroke-width:1.5;" width="107" x="83.5" y="187"/><text fill="#000000" font-family="sans-serif" font-size="12" lengthAdjust="spacing" textLength="87" x="93.5" y="209.457">Something else</text><!--MD5=[0f23ef6eb4b1b6c14a21cac5fe254886]
link start to Initialization--><path d="M96,26.25 C96,35.43 96,49.84 96,61.9 " fill="none" id="start-to-Initialization" style="stroke:#A80036;stroke-width:1.0;"/><polygon fill="#A80036" points="96,66.91,100,57.91,96,61.91,92,57.91,96,66.91" style="stroke:#A80036;stroke-width:1.0;"/><!--MD5=[f970159557ceffc4559f9ee4f3f46fdb]
link Initialization to #5--><path d="M96,102.08 C96,112.87 96,126.88 96,137.63 " fill="none" id="Initialization-to-#5" style="stroke:#A80036;stroke-width:1.0;"/><polygon fill="#A80036" points="96,142.92,100,133.92,96,137.92,92,133.92,96,142.92" style="stroke:#A80036;stroke-width:1.0;"/><text fill="#000000" font-family="sans-serif" font-size="11" lengthAdjust="spacing" textLength="51" x="32.5688" y="132.485">Some Test</text><!--MD5=[4ed0b6951f0c4ed119b5825e34e72fa8]
link #5 to Some Activity--><path d="M87.65,159.06 C77.12,163.43 59.49,172.57 52,187 C44.11,202.21 45.02,221.81 47.53,236.64 " fill="none" id="#5-to-Some Activity" style="stroke:#A80036;stroke-width:1.0;"/><polygon fill="#A80036" points="48.52,241.87,50.7794,232.2838,47.5917,236.9569,42.9185,233.7692,48.52,241.87" style="stroke:#A80036;stroke-width:1.0;"/><text fill="#000000" font-family="sans-serif" font-size="11" lengthAdjust="spacing" textLength="19" x="53" y="209.4189">true</text><!--MD5=[97e0d588043c3fbfd2b2e59d052c508a]
link Some Activity to Another activity--><path d="M53.91,277.29 C54.48,287.79 55.21,301.43 55.82,312.75 " fill="none" id="Some Activity-to-Another activity" style="stroke:#A80036;stroke-width:1.0;"/><polygon fill="#A80036" points="56.1,317.77,59.6048,308.5659,55.8282,312.7774,51.6167,309.0008,56.1,317.77" style="stroke:#A80036;stroke-width:1.0;"/><!--MD5=[14518ea1a79a02d11bb86953a1b562de]
link Another activity to end--><path d="M107.31,335.5 C112.46,335.5 117.62,335.5 122.77,335.5 " fill="none" id="Another activity-to-end" style="stroke:#A80036;stroke-width:1.0;"/><polygon fill="#A80036" points="127.93,335.5,118.93,331.5,122.93,335.5,118.93,339.5,127.93,335.5" style="stroke:#A80036;stroke-width:1.0;"/><!--MD5=[d73beba7fcb51f91ef1c24c353dc0a65]
link #5 to Something else--><path d="M101.36,162.21 C105.9,167.47 112.68,175.33 119.12,182.78 " fill="none" id="#5-to-Something else" style="stroke:#A80036;stroke-width:1.0;"/><polygon fill="#A80036" points="122.64,186.86,119.7819,177.435,119.3708,183.0768,113.7289,182.6657,122.64,186.86" style="stroke:#A80036;stroke-width:1.0;"/><text fill="#000000" font-family="sans-serif" font-size="11" lengthAdjust="spacing" textLength="24" x="113.17" y="172.1489">false</text><!--MD5=[6008a548d6e19d71c4fdb729e150d919]
link Something else to end--><path d="M137.13,222.1 C137.33,247.66 137.7,296.21 137.89,320.26 " fill="none" id="Something else-to-end" style="stroke:#A80036;stroke-width:1.0;"/><polygon fill="#A80036" points="137.93,325.28,141.8527,316.246,137.8871,320.2802,133.853,316.3146,137.93,325.28" style="stroke:#A80036;stroke-width:1.0;"/><text fill="#000000" font-family="sans-serif" font-size="11" lengthAdjust="spacing" textLength="75" x="138" y="264.4189">Ending process</text><!--MD5=[0585975d2885a64fab04e7e0f8307b99]
@startuml
(*) - -> "Initialization"

if "Some Test" then
  - ->[true] "Some Activity"
  - -> "Another activity"
  -right-> (*)
else
  ->[false] "Something else"
  - ->[Ending process] (*)
endif

@enduml

PlantUML version 1.2021.16(Wed Dec 08 18:25:22 CET 2021)
(GPL source distribution)
Java Runtime: OpenJDK Runtime Environment
JVM: OpenJDK 64-Bit Server VM
Default Encoding: Cp1252
Language: de
Country: CH
--></g></svg>