<?xml version="1.0" encoding="UTF-8" standalone="no"?><svg xmlns="http://www.w3.org/2000/svg" xmlns:xlink="http://www.w3.org/1999/xlink" contentScriptType="application/ecmascript" contentStyleType="text/css" height="202px" preserveAspectRatio="none" style="width:318px;height:202px;" version="1.1" viewBox="0 0 318 202" width="318px" zoomAndPan="magnify"><defs><filter height="300%" id="fe125q6atpiza" width="300%" x="-1" y="-1"><feGaussianBlur result="blurOut" stdDeviation="2.0"/><feColorMatrix in="blurOut" result="blurOut2" type="matrix" values="0 0 0 0 0 0 0 0 0 0 0 0 0 0 0 0 0 0 .4 0"/><feOffset dx="4.0" dy="4.0" in="blurOut2" result="blurOut3"/><feBlend in="SourceGraphic" in2="blurOut3" mode="normal"/></filter></defs><g><ellipse cx="85" cy="18" fill="#000000" filter="url(#fe125q6atpiza)" rx="10" ry="10" style="stroke: none; stroke-width: 1.0;"/><rect fill="#FEFECE" filter="url(#fe125q6atpiza)" height="34.1328" rx="12.5" ry="12.5" style="stroke: #A80036; stroke-width: 1.5;" width="158" x="6" y="69"/><text fill="#000000" font-family="sans-serif" font-size="12" lengthAdjust="spacingAndGlyphs" textLength="138" x="16" y="90.6016">states (possibly related)</text><rect fill="#FEFECE" filter="url(#fe125q6atpiza)" height="34.1328" rx="12.5" ry="12.5" style="stroke: #A80036; stroke-width: 1.5;" width="60" x="246" y="69"/><text fill="#000000" font-family="sans-serif" font-size="12" lengthAdjust="spacingAndGlyphs" textLength="40" x="256" y="90.6016">actions</text><rect fill="#FEFECE" filter="url(#fe125q6atpiza)" height="34.1328" rx="12.5" ry="12.5" style="stroke: #A80036; stroke-width: 1.5;" width="67" x="146.5" y="157"/><text fill="#000000" font-family="sans-serif" font-size="12" lengthAdjust="spacingAndGlyphs" textLength="47" x="156.5" y="178.6016">rewards</text><!--MD5=[7c9ddc289c3bda1d3f0569ade38dc848]
link start to states (possibly related)--><path d="M85,28.18 C85,37.27 85,51.53 85,63.49 " fill="none" id="start-&gt;states (possibly related)" style="stroke: #A80036; stroke-width: 1.0;"/><polygon fill="#A80036" points="85,68.79,89,59.79,85,63.79,81,59.79,85,68.79" style="stroke: #A80036; stroke-width: 1.0;"/><!--MD5=[dae855832e811582b18ed54c65850f91]
link states (possibly related) to actions--><path d="M164.07,86 C190.67,86 219.03,86 240.54,86 " fill="none" id="states (possibly related)-&gt;actions" style="stroke: #A80036; stroke-width: 1.0;"/><polygon fill="#A80036" points="245.58,86,236.58,82,240.58,86,236.58,90,245.58,86" style="stroke: #A80036; stroke-width: 1.0;"/><text fill="#000000" font-family="sans-serif" font-size="11" lengthAdjust="spacingAndGlyphs" textLength="60" x="175" y="80.6348">influencing</text><!--MD5=[8fde3aafa4b9d0cb47d6e40508d37e13]
link actions to rewards--><path d="M264.94,103.45 C257.5,113.79 247.06,127.03 236,137 C229.12,143.2 221.06,149.05 213.23,154.16 " fill="none" id="actions-&gt;rewards" style="stroke: #A80036; stroke-width: 1.0;"/><polygon fill="#A80036" points="208.91,156.92,218.6459,155.4329,213.1201,154.2227,214.3303,148.6968,208.91,156.92" style="stroke: #A80036; stroke-width: 1.0;"/><text fill="#000000" font-family="sans-serif" font-size="11" lengthAdjust="spacingAndGlyphs" textLength="56" x="250" y="134.6348">giving rise</text><!--MD5=[8a56d596381d0066ba4a991053040da3]
link rewards to states (possibly related)--><path d="M155.85,156.67 C147.69,150.79 138.71,143.9 131,137 C120.7,127.77 110.18,116.51 101.81,107.01 " fill="none" id="rewards-&gt;states (possibly related)" style="stroke: #A80036; stroke-width: 1.0;"/><polygon fill="#A80036" points="98.36,103.06,101.256,112.4735,101.6444,106.83,107.2879,107.2184,98.36,103.06" style="stroke: #A80036; stroke-width: 1.0;"/><text fill="#000000" font-family="sans-serif" font-size="11" lengthAdjust="spacingAndGlyphs" textLength="102" x="132" y="134.6348">affecting the states</text><!--MD5=[b2e488d11d5c504a76e143b02faf898b]
@startuml
(*) -down-> "states (possibly related)"

-right-> [influencing] actions 

- -> [giving rise] rewards

- -> [affecting the states] "states (possibly related)"
@enduml

PlantUML version 1.2020.05(Thu Mar 19 22:17:32 CET 2020)
(GPL source distribution)
Java Runtime: Java(TM) SE Runtime Environment
JVM: Java HotSpot(TM) 64-Bit Server VM
Java Version: 1.8.0_231-b11
Operating System: Mac OS X
Default Encoding: US-ASCII
Language: de
Country: CH
--></g></svg>