<svg xmlns="http://www.w3.org/2000/svg" xmlns:xlink="http://www.w3.org/1999/xlink" contentScriptType="application/ecmascript" contentStyleType="text/css" preserveAspectRatio="none" style="width:422px;height:175px;" version="1.1" viewBox="0 0 422 175" zoomAndPan="magnify" viewport="0 0 1280px 530px"><defs><filter height="300%" id="fd1o5ssdzg7uv" width="300%" x="-1" y="-1"><feGaussianBlur result="blurOut" stdDeviation="2.0"/><feColorMatrix in="blurOut" result="blurOut2" type="matrix" values="0 0 0 0 0 0 0 0 0 0 0 0 0 0 0 0 0 0 .4 0"/><feOffset dx="4.0" dy="4.0" in="blurOut2" result="blurOut3"/><feBlend in="SourceGraphic" in2="blurOut3" mode="normal"/></filter></defs><g><!--MD5=[6178f88bbe623bb523cef0440b7d7572]
class Entity01--><rect fill="#FEFECE" filter="url(#fd1o5ssdzg7uv)" height="48" id="Entity01" style="stroke: #A80036; stroke-width: 1.5;" width="75" x="6" y="8"/><ellipse cx="21" cy="24" fill="#ADD1B2" rx="11" ry="11" style="stroke: #A80036; stroke-width: 1.0;"/><path d="M23.7656,19.875 Q23.9219,19.6563 24.1094,19.5469 Q24.2969,19.4375 24.5156,19.4375 Q24.8906,19.4375 25.125,19.7031 Q25.3594,19.9531 25.3594,20.5625 L25.3594,22.0156 Q25.3594,22.625 25.125,22.8906 Q24.8906,23.1563 24.5156,23.1563 Q24.1719,23.1563 23.9688,22.9531 Q23.7656,22.7656 23.6563,22.25 Q23.6094,21.8906 23.4219,21.7031 Q23.0938,21.3281 22.4844,21.1094 Q21.875,20.8906 21.25,20.8906 Q20.4844,20.8906 19.8438,21.2188 Q19.2188,21.5469 18.7188,22.2969 Q18.2344,23.0469 18.2344,24.0781 L18.2344,25.1719 Q18.2344,26.4063 19.125,27.2344 Q20.0156,28.0469 21.6094,28.0469 Q22.5469,28.0469 23.2031,27.7969 Q23.5938,27.6406 24.0156,27.2031 Q24.2813,26.9375 24.4219,26.8594 Q24.5781,26.7813 24.7813,26.7813 Q25.1094,26.7813 25.3594,27.0469 Q25.625,27.2969 25.625,27.6406 Q25.625,27.9844 25.2813,28.3906 Q24.7813,28.9688 23.9844,29.2969 Q22.9063,29.75 21.6094,29.75 Q20.0938,29.75 18.8906,29.125 Q17.9063,28.625 17.2188,27.5625 Q16.5313,26.4844 16.5313,25.2031 L16.5313,24.0469 Q16.5313,22.7188 17.1406,21.5781 Q17.7656,20.4219 18.8594,19.8125 Q19.9531,19.1875 21.1875,19.1875 Q21.9219,19.1875 22.5625,19.3594 Q23.2188,19.5156 23.7656,19.875 Z "/><text fill="#000000" font-family="sans-serif" font-size="12" lengthAdjust="spacingAndGlyphs" textLength="43" x="35" y="28.9102">Entity01</text><line style="stroke: #A80036; stroke-width: 1.5;" x1="7" x2="80" y1="40" y2="40"/><line style="stroke: #A80036; stroke-width: 1.5;" x1="7" x2="80" y1="48" y2="48"/><!--MD5=[f4074c741a004a9c45fd03a31f8b9b03]
class Entity02--><rect fill="#FEFECE" filter="url(#fd1o5ssdzg7uv)" height="48" id="Entity02" style="stroke: #A80036; stroke-width: 1.5;" width="75" x="6" y="116"/><ellipse cx="21" cy="132" fill="#ADD1B2" rx="11" ry="11" style="stroke: #A80036; stroke-width: 1.0;"/><path d="M23.7656,127.875 Q23.9219,127.6563 24.1094,127.5469 Q24.2969,127.4375 24.5156,127.4375 Q24.8906,127.4375 25.125,127.7031 Q25.3594,127.9531 25.3594,128.5625 L25.3594,130.0156 Q25.3594,130.625 25.125,130.8906 Q24.8906,131.1563 24.5156,131.1563 Q24.1719,131.1563 23.9688,130.9531 Q23.7656,130.7656 23.6563,130.25 Q23.6094,129.8906 23.4219,129.7031 Q23.0938,129.3281 22.4844,129.1094 Q21.875,128.8906 21.25,128.8906 Q20.4844,128.8906 19.8438,129.2188 Q19.2188,129.5469 18.7188,130.2969 Q18.2344,131.0469 18.2344,132.0781 L18.2344,133.1719 Q18.2344,134.4063 19.125,135.2344 Q20.0156,136.0469 21.6094,136.0469 Q22.5469,136.0469 23.2031,135.7969 Q23.5938,135.6406 24.0156,135.2031 Q24.2813,134.9375 24.4219,134.8594 Q24.5781,134.7813 24.7813,134.7813 Q25.1094,134.7813 25.3594,135.0469 Q25.625,135.2969 25.625,135.6406 Q25.625,135.9844 25.2813,136.3906 Q24.7813,136.9688 23.9844,137.2969 Q22.9063,137.75 21.6094,137.75 Q20.0938,137.75 18.8906,137.125 Q17.9063,136.625 17.2188,135.5625 Q16.5313,134.4844 16.5313,133.2031 L16.5313,132.0469 Q16.5313,130.7188 17.1406,129.5781 Q17.7656,128.4219 18.8594,127.8125 Q19.9531,127.1875 21.1875,127.1875 Q21.9219,127.1875 22.5625,127.3594 Q23.2188,127.5156 23.7656,127.875 Z "/><text fill="#000000" font-family="sans-serif" font-size="12" lengthAdjust="spacingAndGlyphs" textLength="43" x="35" y="136.9102">Entity02</text><line style="stroke: #A80036; stroke-width: 1.5;" x1="7" x2="80" y1="148" y2="148"/><line style="stroke: #A80036; stroke-width: 1.5;" x1="7" x2="80" y1="156" y2="156"/><!--MD5=[bc1ecf3a155b5be2b6a42d90148215d2]
class Entity03--><rect fill="#FEFECE" filter="url(#fd1o5ssdzg7uv)" height="48" id="Entity03" style="stroke: #A80036; stroke-width: 1.5;" width="75" x="116" y="8"/><ellipse cx="131" cy="24" fill="#ADD1B2" rx="11" ry="11" style="stroke: #A80036; stroke-width: 1.0;"/><path d="M133.7656,19.875 Q133.9219,19.6563 134.1094,19.5469 Q134.2969,19.4375 134.5156,19.4375 Q134.8906,19.4375 135.125,19.7031 Q135.3594,19.9531 135.3594,20.5625 L135.3594,22.0156 Q135.3594,22.625 135.125,22.8906 Q134.8906,23.1563 134.5156,23.1563 Q134.1719,23.1563 133.9688,22.9531 Q133.7656,22.7656 133.6563,22.25 Q133.6094,21.8906 133.4219,21.7031 Q133.0938,21.3281 132.4844,21.1094 Q131.875,20.8906 131.25,20.8906 Q130.4844,20.8906 129.8438,21.2188 Q129.2188,21.5469 128.7188,22.2969 Q128.2344,23.0469 128.2344,24.0781 L128.2344,25.1719 Q128.2344,26.4063 129.125,27.2344 Q130.0156,28.0469 131.6094,28.0469 Q132.5469,28.0469 133.2031,27.7969 Q133.5938,27.6406 134.0156,27.2031 Q134.2813,26.9375 134.4219,26.8594 Q134.5781,26.7813 134.7813,26.7813 Q135.1094,26.7813 135.3594,27.0469 Q135.625,27.2969 135.625,27.6406 Q135.625,27.9844 135.2813,28.3906 Q134.7813,28.9688 133.9844,29.2969 Q132.9063,29.75 131.6094,29.75 Q130.0938,29.75 128.8906,29.125 Q127.9063,28.625 127.2188,27.5625 Q126.5313,26.4844 126.5313,25.2031 L126.5313,24.0469 Q126.5313,22.7188 127.1406,21.5781 Q127.7656,20.4219 128.8594,19.8125 Q129.9531,19.1875 131.1875,19.1875 Q131.9219,19.1875 132.5625,19.3594 Q133.2188,19.5156 133.7656,19.875 Z "/><text fill="#000000" font-family="sans-serif" font-size="12" lengthAdjust="spacingAndGlyphs" textLength="43" x="145" y="28.9102">Entity03</text><line style="stroke: #A80036; stroke-width: 1.5;" x1="117" x2="190" y1="40" y2="40"/><line style="stroke: #A80036; stroke-width: 1.5;" x1="117" x2="190" y1="48" y2="48"/><!--MD5=[2d2d2c8cadf0cbcf723339c97359309c]
class Entity04--><rect fill="#FEFECE" filter="url(#fd1o5ssdzg7uv)" height="48" id="Entity04" style="stroke: #A80036; stroke-width: 1.5;" width="75" x="116" y="116"/><ellipse cx="131" cy="132" fill="#ADD1B2" rx="11" ry="11" style="stroke: #A80036; stroke-width: 1.0;"/><path d="M133.7656,127.875 Q133.9219,127.6563 134.1094,127.5469 Q134.2969,127.4375 134.5156,127.4375 Q134.8906,127.4375 135.125,127.7031 Q135.3594,127.9531 135.3594,128.5625 L135.3594,130.0156 Q135.3594,130.625 135.125,130.8906 Q134.8906,131.1563 134.5156,131.1563 Q134.1719,131.1563 133.9688,130.9531 Q133.7656,130.7656 133.6563,130.25 Q133.6094,129.8906 133.4219,129.7031 Q133.0938,129.3281 132.4844,129.1094 Q131.875,128.8906 131.25,128.8906 Q130.4844,128.8906 129.8438,129.2188 Q129.2188,129.5469 128.7188,130.2969 Q128.2344,131.0469 128.2344,132.0781 L128.2344,133.1719 Q128.2344,134.4063 129.125,135.2344 Q130.0156,136.0469 131.6094,136.0469 Q132.5469,136.0469 133.2031,135.7969 Q133.5938,135.6406 134.0156,135.2031 Q134.2813,134.9375 134.4219,134.8594 Q134.5781,134.7813 134.7813,134.7813 Q135.1094,134.7813 135.3594,135.0469 Q135.625,135.2969 135.625,135.6406 Q135.625,135.9844 135.2813,136.3906 Q134.7813,136.9688 133.9844,137.2969 Q132.9063,137.75 131.6094,137.75 Q130.0938,137.75 128.8906,137.125 Q127.9063,136.625 127.2188,135.5625 Q126.5313,134.4844 126.5313,133.2031 L126.5313,132.0469 Q126.5313,130.7188 127.1406,129.5781 Q127.7656,128.4219 128.8594,127.8125 Q129.9531,127.1875 131.1875,127.1875 Q131.9219,127.1875 132.5625,127.3594 Q133.2188,127.5156 133.7656,127.875 Z "/><text fill="#000000" font-family="sans-serif" font-size="12" lengthAdjust="spacingAndGlyphs" textLength="43" x="145" y="136.9102">Entity04</text><line style="stroke: #A80036; stroke-width: 1.5;" x1="117" x2="190" y1="148" y2="148"/><line style="stroke: #A80036; stroke-width: 1.5;" x1="117" x2="190" y1="156" y2="156"/><!--MD5=[df017a8854864e8c7519c60f4c6c8bea]
class Entity05--><rect fill="#FEFECE" filter="url(#fd1o5ssdzg7uv)" height="48" id="Entity05" style="stroke: #A80036; stroke-width: 1.5;" width="75" x="226" y="8"/><ellipse cx="241" cy="24" fill="#ADD1B2" rx="11" ry="11" style="stroke: #A80036; stroke-width: 1.0;"/><path d="M243.7656,19.875 Q243.9219,19.6563 244.1094,19.5469 Q244.2969,19.4375 244.5156,19.4375 Q244.8906,19.4375 245.125,19.7031 Q245.3594,19.9531 245.3594,20.5625 L245.3594,22.0156 Q245.3594,22.625 245.125,22.8906 Q244.8906,23.1563 244.5156,23.1563 Q244.1719,23.1563 243.9688,22.9531 Q243.7656,22.7656 243.6563,22.25 Q243.6094,21.8906 243.4219,21.7031 Q243.0938,21.3281 242.4844,21.1094 Q241.875,20.8906 241.25,20.8906 Q240.4844,20.8906 239.8438,21.2188 Q239.2188,21.5469 238.7188,22.2969 Q238.2344,23.0469 238.2344,24.0781 L238.2344,25.1719 Q238.2344,26.4063 239.125,27.2344 Q240.0156,28.0469 241.6094,28.0469 Q242.5469,28.0469 243.2031,27.7969 Q243.5938,27.6406 244.0156,27.2031 Q244.2813,26.9375 244.4219,26.8594 Q244.5781,26.7813 244.7813,26.7813 Q245.1094,26.7813 245.3594,27.0469 Q245.625,27.2969 245.625,27.6406 Q245.625,27.9844 245.2813,28.3906 Q244.7813,28.9688 243.9844,29.2969 Q242.9063,29.75 241.6094,29.75 Q240.0938,29.75 238.8906,29.125 Q237.9063,28.625 237.2188,27.5625 Q236.5313,26.4844 236.5313,25.2031 L236.5313,24.0469 Q236.5313,22.7188 237.1406,21.5781 Q237.7656,20.4219 238.8594,19.8125 Q239.9531,19.1875 241.1875,19.1875 Q241.9219,19.1875 242.5625,19.3594 Q243.2188,19.5156 243.7656,19.875 Z "/><text fill="#000000" font-family="sans-serif" font-size="12" lengthAdjust="spacingAndGlyphs" textLength="43" x="255" y="28.9102">Entity05</text><line style="stroke: #A80036; stroke-width: 1.5;" x1="227" x2="300" y1="40" y2="40"/><line style="stroke: #A80036; stroke-width: 1.5;" x1="227" x2="300" y1="48" y2="48"/><!--MD5=[e188ef918634b4e3675ccb46cc0e364c]
class Entity06--><rect fill="#FEFECE" filter="url(#fd1o5ssdzg7uv)" height="48" id="Entity06" style="stroke: #A80036; stroke-width: 1.5;" width="75" x="226" y="116"/><ellipse cx="241" cy="132" fill="#ADD1B2" rx="11" ry="11" style="stroke: #A80036; stroke-width: 1.0;"/><path d="M243.7656,127.875 Q243.9219,127.6563 244.1094,127.5469 Q244.2969,127.4375 244.5156,127.4375 Q244.8906,127.4375 245.125,127.7031 Q245.3594,127.9531 245.3594,128.5625 L245.3594,130.0156 Q245.3594,130.625 245.125,130.8906 Q244.8906,131.1563 244.5156,131.1563 Q244.1719,131.1563 243.9688,130.9531 Q243.7656,130.7656 243.6563,130.25 Q243.6094,129.8906 243.4219,129.7031 Q243.0938,129.3281 242.4844,129.1094 Q241.875,128.8906 241.25,128.8906 Q240.4844,128.8906 239.8438,129.2188 Q239.2188,129.5469 238.7188,130.2969 Q238.2344,131.0469 238.2344,132.0781 L238.2344,133.1719 Q238.2344,134.4063 239.125,135.2344 Q240.0156,136.0469 241.6094,136.0469 Q242.5469,136.0469 243.2031,135.7969 Q243.5938,135.6406 244.0156,135.2031 Q244.2813,134.9375 244.4219,134.8594 Q244.5781,134.7813 244.7813,134.7813 Q245.1094,134.7813 245.3594,135.0469 Q245.625,135.2969 245.625,135.6406 Q245.625,135.9844 245.2813,136.3906 Q244.7813,136.9688 243.9844,137.2969 Q242.9063,137.75 241.6094,137.75 Q240.0938,137.75 238.8906,137.125 Q237.9063,136.625 237.2188,135.5625 Q236.5313,134.4844 236.5313,133.2031 L236.5313,132.0469 Q236.5313,130.7188 237.1406,129.5781 Q237.7656,128.4219 238.8594,127.8125 Q239.9531,127.1875 241.1875,127.1875 Q241.9219,127.1875 242.5625,127.3594 Q243.2188,127.5156 243.7656,127.875 Z "/><text fill="#000000" font-family="sans-serif" font-size="12" lengthAdjust="spacingAndGlyphs" textLength="43" x="255" y="136.9102">Entity06</text><line style="stroke: #A80036; stroke-width: 1.5;" x1="227" x2="300" y1="148" y2="148"/><line style="stroke: #A80036; stroke-width: 1.5;" x1="227" x2="300" y1="156" y2="156"/><!--MD5=[0811b4726bb2e806a3e81ecfdf10c6b1]
class Entity07--><rect fill="#FEFECE" filter="url(#fd1o5ssdzg7uv)" height="48" id="Entity07" style="stroke: #A80036; stroke-width: 1.5;" width="75" x="336" y="8"/><ellipse cx="351" cy="24" fill="#ADD1B2" rx="11" ry="11" style="stroke: #A80036; stroke-width: 1.0;"/><path d="M353.7656,19.875 Q353.9219,19.6563 354.1094,19.5469 Q354.2969,19.4375 354.5156,19.4375 Q354.8906,19.4375 355.125,19.7031 Q355.3594,19.9531 355.3594,20.5625 L355.3594,22.0156 Q355.3594,22.625 355.125,22.8906 Q354.8906,23.1563 354.5156,23.1563 Q354.1719,23.1563 353.9688,22.9531 Q353.7656,22.7656 353.6563,22.25 Q353.6094,21.8906 353.4219,21.7031 Q353.0938,21.3281 352.4844,21.1094 Q351.875,20.8906 351.25,20.8906 Q350.4844,20.8906 349.8438,21.2188 Q349.2188,21.5469 348.7188,22.2969 Q348.2344,23.0469 348.2344,24.0781 L348.2344,25.1719 Q348.2344,26.4063 349.125,27.2344 Q350.0156,28.0469 351.6094,28.0469 Q352.5469,28.0469 353.2031,27.7969 Q353.5938,27.6406 354.0156,27.2031 Q354.2813,26.9375 354.4219,26.8594 Q354.5781,26.7813 354.7813,26.7813 Q355.1094,26.7813 355.3594,27.0469 Q355.625,27.2969 355.625,27.6406 Q355.625,27.9844 355.2813,28.3906 Q354.7813,28.9688 353.9844,29.2969 Q352.9063,29.75 351.6094,29.75 Q350.0938,29.75 348.8906,29.125 Q347.9063,28.625 347.2188,27.5625 Q346.5313,26.4844 346.5313,25.2031 L346.5313,24.0469 Q346.5313,22.7188 347.1406,21.5781 Q347.7656,20.4219 348.8594,19.8125 Q349.9531,19.1875 351.1875,19.1875 Q351.9219,19.1875 352.5625,19.3594 Q353.2188,19.5156 353.7656,19.875 Z "/><text fill="#000000" font-family="sans-serif" font-size="12" lengthAdjust="spacingAndGlyphs" textLength="43" x="365" y="28.9102">Entity07</text><line style="stroke: #A80036; stroke-width: 1.5;" x1="337" x2="410" y1="40" y2="40"/><line style="stroke: #A80036; stroke-width: 1.5;" x1="337" x2="410" y1="48" y2="48"/><!--MD5=[c9f4016e116c1649eb8173279124ba5a]
class Entity08--><rect fill="#FEFECE" filter="url(#fd1o5ssdzg7uv)" height="48" id="Entity08" style="stroke: #A80036; stroke-width: 1.5;" width="75" x="336" y="116"/><ellipse cx="351" cy="132" fill="#ADD1B2" rx="11" ry="11" style="stroke: #A80036; stroke-width: 1.0;"/><path d="M353.7656,127.875 Q353.9219,127.6563 354.1094,127.5469 Q354.2969,127.4375 354.5156,127.4375 Q354.8906,127.4375 355.125,127.7031 Q355.3594,127.9531 355.3594,128.5625 L355.3594,130.0156 Q355.3594,130.625 355.125,130.8906 Q354.8906,131.1563 354.5156,131.1563 Q354.1719,131.1563 353.9688,130.9531 Q353.7656,130.7656 353.6563,130.25 Q353.6094,129.8906 353.4219,129.7031 Q353.0938,129.3281 352.4844,129.1094 Q351.875,128.8906 351.25,128.8906 Q350.4844,128.8906 349.8438,129.2188 Q349.2188,129.5469 348.7188,130.2969 Q348.2344,131.0469 348.2344,132.0781 L348.2344,133.1719 Q348.2344,134.4063 349.125,135.2344 Q350.0156,136.0469 351.6094,136.0469 Q352.5469,136.0469 353.2031,135.7969 Q353.5938,135.6406 354.0156,135.2031 Q354.2813,134.9375 354.4219,134.8594 Q354.5781,134.7813 354.7813,134.7813 Q355.1094,134.7813 355.3594,135.0469 Q355.625,135.2969 355.625,135.6406 Q355.625,135.9844 355.2813,136.3906 Q354.7813,136.9688 353.9844,137.2969 Q352.9063,137.75 351.6094,137.75 Q350.0938,137.75 348.8906,137.125 Q347.9063,136.625 347.2188,135.5625 Q346.5313,134.4844 346.5313,133.2031 L346.5313,132.0469 Q346.5313,130.7188 347.1406,129.5781 Q347.7656,128.4219 348.8594,127.8125 Q349.9531,127.1875 351.1875,127.1875 Q351.9219,127.1875 352.5625,127.3594 Q353.2188,127.5156 353.7656,127.875 Z "/><text fill="#000000" font-family="sans-serif" font-size="12" lengthAdjust="spacingAndGlyphs" textLength="43" x="365" y="136.9102">Entity08</text><line style="stroke: #A80036; stroke-width: 1.5;" x1="337" x2="410" y1="148" y2="148"/><line style="stroke: #A80036; stroke-width: 1.5;" x1="337" x2="410" y1="156" y2="156"/><!--MD5=[aa65acfa580fda55ed56c41e76710f9e]
link Entity01 to Entity02--><path d="M43.5,64.26 C43.5,77.89 43.5,93.85 43.5,107.51 " fill="none" id="Entity01-Entity02" style="stroke: #A80036; stroke-width: 1.0; stroke-dasharray: 7.0,7.0;"/><line style="stroke: #A80036; stroke-width: 1.0;" x1="47.5" x2="39.5" y1="111.68" y2="111.68"/><line style="stroke: #A80036; stroke-width: 1.0;" x1="47.5" x2="39.5" y1="108.68" y2="108.68"/><line style="stroke: #A80036; stroke-width: 1.0;" x1="43.5" x2="43.5" y1="107.68" y2="115.68"/><line style="stroke: #A80036; stroke-width: 1.0;" x1="43.5" x2="37.5" y1="64" y2="56"/><line style="stroke: #A80036; stroke-width: 1.0;" x1="43.5" x2="49.5" y1="64" y2="56"/><line style="stroke: #A80036; stroke-width: 1.0;" x1="43.5" x2="43.5" y1="64" y2="56"/><line style="stroke: #A80036; stroke-width: 1.0;" x1="39.5" x2="47.5" y1="66" y2="66"/><!--MD5=[121c25045f65a021b7b7359b5ab947ee]
link Entity03 to Entity04--><path d="M153.5,64.26 C153.5,77.89 153.5,93.85 153.5,107.51 " fill="none" id="Entity03-Entity04" style="stroke: #A80036; stroke-width: 1.0; stroke-dasharray: 7.0,7.0;"/><line style="stroke: #A80036; stroke-width: 1.0;" x1="153.5" x2="153.5" y1="104.68" y2="115.68"/><ellipse cx="153.5" cy="104.68" fill="none" rx="4" ry="4" style="stroke: #A80036; stroke-width: 1.0;"/><line style="stroke: #A80036; stroke-width: 1.0;" x1="157.5" x2="149.5" y1="111.68" y2="111.68"/><line style="stroke: #A80036; stroke-width: 1.0;" x1="153.5" x2="147.5" y1="64" y2="56"/><line style="stroke: #A80036; stroke-width: 1.0;" x1="153.5" x2="159.5" y1="64" y2="56"/><line style="stroke: #A80036; stroke-width: 1.0;" x1="153.5" x2="153.5" y1="64" y2="56"/><ellipse cx="153.5" cy="70" fill="none" rx="4" ry="4" style="stroke: #A80036; stroke-width: 1.0;"/><!--MD5=[3e1350d0fdac45c01a0825d9e99fb4be]
link Entity05 to Entity06--><path d="M263.5,64.26 C263.5,77.89 263.5,93.85 263.5,107.51 " fill="none" id="Entity05-Entity06" style="stroke: #A80036; stroke-width: 1.0;"/><line style="stroke: #A80036; stroke-width: 1.0;" x1="263.5" x2="269.5" y1="107.68" y2="115.68"/><line style="stroke: #A80036; stroke-width: 1.0;" x1="263.5" x2="257.5" y1="107.68" y2="115.68"/><line style="stroke: #A80036; stroke-width: 1.0;" x1="263.5" x2="263.5" y1="107.68" y2="115.68"/><ellipse cx="263.5" cy="101.68" fill="none" rx="4" ry="4" style="stroke: #A80036; stroke-width: 1.0;"/><line style="stroke: #A80036; stroke-width: 1.0;" x1="259.5" x2="267.5" y1="60" y2="60"/><line style="stroke: #A80036; stroke-width: 1.0;" x1="259.5" x2="267.5" y1="63" y2="63"/><line style="stroke: #A80036; stroke-width: 1.0;" x1="263.5" x2="263.5" y1="64" y2="56"/><!--MD5=[363bffc439f51b35d57d6ba0bf584fef]
link Entity07 to Entity08--><path d="M373.5,64.26 C373.5,77.89 373.5,93.85 373.5,107.51 " fill="none" id="Entity07-Entity08" style="stroke: #A80036; stroke-width: 1.0;"/><line style="stroke: #A80036; stroke-width: 1.0;" x1="377.5" x2="369.5" y1="111.68" y2="111.68"/><line style="stroke: #A80036; stroke-width: 1.0;" x1="377.5" x2="369.5" y1="108.68" y2="108.68"/><line style="stroke: #A80036; stroke-width: 1.0;" x1="373.5" x2="373.5" y1="107.68" y2="115.68"/><line style="stroke: #A80036; stroke-width: 1.0;" x1="373.5" x2="373.5" y1="67" y2="56"/><ellipse cx="373.5" cy="67" fill="none" rx="4" ry="4" style="stroke: #A80036; stroke-width: 1.0;"/><line style="stroke: #A80036; stroke-width: 1.0;" x1="369.5" x2="377.5" y1="60" y2="60"/><!--MD5=[e3138b4da5802f599d9cd910fe5a8fae]
@startuml
Entity01 }|..|| Entity02
Entity03 }o..o| Entity04
Entity05 ||- -o{ Entity06
Entity07 |o- -|| Entity08
@enduml

PlantUML version 1.2020.05(Thu Mar 19 22:17:32 CET 2020)
(GPL source distribution)
Java Runtime: OpenJDK Runtime Environment
JVM: OpenJDK 64-Bit Server VM
Java Version: 11.0.12+7
Operating System: Windows 10
Default Encoding: Cp1252
Language: en
Country: GB
--></g></svg>