<?xml version="1.0" encoding="UTF-8" standalone="no"?><svg xmlns="http://www.w3.org/2000/svg" xmlns:xlink="http://www.w3.org/1999/xlink" contentScriptType="application/ecmascript" contentStyleType="text/css" height="321px" preserveAspectRatio="none" style="width:92px;height:321px;" version="1.1" viewBox="0 0 92 321" width="92px" zoomAndPan="magnify"><defs><filter height="300%" id="f502h63zi2g7t" width="300%" x="-1" y="-1"><feGaussianBlur result="blurOut" stdDeviation="2.0"/><feColorMatrix in="blurOut" result="blurOut2" type="matrix" values="0 0 0 0 0 0 0 0 0 0 0 0 0 0 0 0 0 0 .4 0"/><feOffset dx="4.0" dy="4.0" in="blurOut2" result="blurOut3"/><feBlend in="SourceGraphic" in2="blurOut3" mode="normal"/></filter></defs><g><ellipse cx="43.5" cy="18" fill="#000000" filter="url(#f502h63zi2g7t)" rx="10" ry="10" style="stroke: none; stroke-width: 1.0;"/><rect fill="#FEFECE" filter="url(#f502h63zi2g7t)" height="34.1328" rx="12.5" ry="12.5" style="stroke: #A80036; stroke-width: 1.5;" width="28" x="29.5" y="68"/><text fill="#000000" font-family="sans-serif" font-size="12" lengthAdjust="spacingAndGlyphs" textLength="8" x="39.5" y="89.6016">A</text><rect fill="#FEFECE" filter="url(#f502h63zi2g7t)" height="34.1328" rx="12.5" ry="12.5" style="stroke: #A80036; stroke-width: 1.5;" width="27" x="6" y="142"/><text fill="#000000" font-family="sans-serif" font-size="12" lengthAdjust="spacingAndGlyphs" textLength="7" x="16" y="163.6016">B</text><rect fill="#FEFECE" filter="url(#f502h63zi2g7t)" height="34.1328" rx="12.5" ry="12.5" style="stroke: #A80036; stroke-width: 1.5;" width="28" x="53.5" y="142"/><text fill="#000000" font-family="sans-serif" font-size="12" lengthAdjust="spacingAndGlyphs" textLength="8" x="63.5" y="163.6016">C</text><rect fill="#FEFECE" filter="url(#f502h63zi2g7t)" height="34.1328" rx="12.5" ry="12.5" style="stroke: #A80036; stroke-width: 1.5;" width="29" x="29" y="216"/><text fill="#000000" font-family="sans-serif" font-size="12" lengthAdjust="spacingAndGlyphs" textLength="9" x="39" y="237.6016">D</text><ellipse cx="43.5" cy="300" fill="none" filter="url(#f502h63zi2g7t)" rx="10" ry="10" style="stroke: #000000; stroke-width: 1.0;"/><ellipse cx="44" cy="300.5" fill="#000000" rx="6" ry="6" style="stroke: none; stroke-width: 1.0;"/><!--MD5=[f3069764360c0ca5718056554238a288]
link start to A--><path d="M43.5,28.04 C43.5,36.93 43.5,50.84 43.5,62.57 " fill="none" id="start-&gt;A" style="stroke: #A80036; stroke-width: 1.0;"/><polygon fill="#A80036" points="43.5,67.78,47.5,58.78,43.5,62.78,39.5,58.78,43.5,67.78" style="stroke: #A80036; stroke-width: 1.0;"/><!--MD5=[5e2eec62a50b26b6b0db6c12e4ee289c]
link A to B--><path d="M38.05,102.34 C34.65,112.56 30.23,125.82 26.55,136.84 " fill="none" id="A-&gt;B" style="stroke: #A80036; stroke-width: 1.0;"/><polygon fill="#A80036" points="24.92,141.73,31.5674,134.4628,26.5054,136.988,23.9802,131.9261,24.92,141.73" style="stroke: #A80036; stroke-width: 1.0;"/><!--MD5=[e1650921a81fac0037ec207a42ac4e7e]
link A to C--><path d="M48.95,102.34 C52.35,112.56 56.77,125.82 60.45,136.84 " fill="none" id="A-&gt;C" style="stroke: #A80036; stroke-width: 1.0;"/><polygon fill="#A80036" points="62.08,141.73,63.0198,131.9261,60.4946,136.988,55.4326,134.4628,62.08,141.73" style="stroke: #A80036; stroke-width: 1.0;"/><!--MD5=[635162b0568dccf9b81699e51957888e]
link B to D--><path d="M24.95,176.34 C28.35,186.56 32.77,199.82 36.45,210.84 " fill="none" id="B-&gt;D" style="stroke: #A80036; stroke-width: 1.0;"/><polygon fill="#A80036" points="38.08,215.73,39.0198,205.9261,36.4946,210.988,31.4326,208.4628,38.08,215.73" style="stroke: #A80036; stroke-width: 1.0;"/><!--MD5=[95ca888c4bb7ed1df160562281720a5c]
link C to D--><path d="M62.05,176.34 C58.65,186.56 54.23,199.82 50.55,210.84 " fill="none" id="C-&gt;D" style="stroke: #A80036; stroke-width: 1.0;"/><polygon fill="#A80036" points="48.92,215.73,55.5674,208.4628,50.5054,210.988,47.9802,205.9261,48.92,215.73" style="stroke: #A80036; stroke-width: 1.0;"/><!--MD5=[438c673da974da4a0fd8fdd0e4aa9b2d]
link D to end--><path d="M43.5,250.07 C43.5,260.6 43.5,274.25 43.5,284.46 " fill="none" id="D-&gt;end" style="stroke: #A80036; stroke-width: 1.0;"/><polygon fill="#A80036" points="43.5,289.74,47.5,280.74,43.5,284.74,39.5,280.74,43.5,289.74" style="stroke: #A80036; stroke-width: 1.0;"/><!--MD5=[7a0c6c2684ca2599ef986ed6a7f7535e]
@startuml
(*) - -> "A"

"A" - -> "B"
"A" - -> "C"

"B" - -> "D"
"C" - -> "D"

- -> (*)

@enduml

PlantUML version 1.2020.05(Thu Mar 19 22:17:32 CET 2020)
(GPL source distribution)
Java Runtime: Java(TM) SE Runtime Environment
JVM: Java HotSpot(TM) 64-Bit Server VM
Java Version: 1.8.0_251-b08
Operating System: Mac OS X
Default Encoding: US-ASCII
Language: de
Country: CH
--></g></svg>